<?xml version="1.0" encoding="UTF-8" standalone="no"?>
<!DOCTYPE svg PUBLIC "-//W3C//DTD SVG 1.1//EN"
 "http://www.w3.org/Graphics/SVG/1.1/DTD/svg11.dtd">
<!-- Generated by graphviz version 2.38.0 (20140413.2041)
 -->
<!-- Title: spark2 Pages: 1 -->
<svg width="1179pt" height="1053pt"
 viewBox="0.00 0.00 1179.42 1053.00" xmlns="http://www.w3.org/2000/svg" xmlns:xlink="http://www.w3.org/1999/xlink">
<g id="graph0" class="graph" transform="scale(1 1) rotate(0) translate(4 1049)">
<title>spark2</title>
<polygon fill="white" stroke="none" points="-4,4 -4,-1049 1175.42,-1049 1175.42,4 -4,4"/>
<text text-anchor="middle" x="585.712" y="-6.8" font-family="Times,serif" font-size="14.00">[SPARK&#45;1503] Implement Nesterov&#39;s accelerated first&#45;order method</text>
<!-- 21 -->
<g id="node1" class="node"><title>21</title>
<polygon fill="gray" stroke="black" points="3,-783.5 3,-895.5 119.424,-895.5 119.424,-783.5 3,-783.5"/>
<text text-anchor="middle" x="61.2119" y="-875.5" font-family="Times,serif" font-size="20.00">#21</text>
<polyline fill="none" stroke="black" points="3,-867.5 119.424,-867.5 "/>
<text text-anchor="middle" x="49.8818" y="-819.5" font-family="Times,serif" font-size="20.00">keywords</text>
<polyline fill="none" stroke="black" points="96.7637,-783.5 96.7637,-867.5 "/>
<text text-anchor="middle" x="108.094" y="-847.5" font-family="Times,serif" font-size="20.00">&#45;</text>
<polyline fill="none" stroke="black" points="96.7637,-839.5 119.424,-839.5 "/>
<text text-anchor="middle" x="108.094" y="-819.5" font-family="Times,serif" font-size="20.00">&#45;</text>
<polyline fill="none" stroke="black" points="96.7637,-811.5 119.424,-811.5 "/>
<text text-anchor="middle" x="108.094" y="-791.5" font-family="Times,serif" font-size="20.00">&#45;</text>
</g>
<!-- 0 -->
<g id="node2" class="node"><title>0</title>
<polygon fill="none" stroke="black" points="476,-932.5 476,-1044.5 592.424,-1044.5 592.424,-932.5 476,-932.5"/>
<text text-anchor="middle" x="534.212" y="-1024.5" font-family="Times,serif" font-size="20.00">#0</text>
<polyline fill="none" stroke="black" points="476,-1016.5 592.424,-1016.5 "/>
<text text-anchor="middle" x="522.882" y="-968.5" font-family="Times,serif" font-size="20.00">keywords</text>
<polyline fill="none" stroke="black" points="569.764,-932.5 569.764,-1016.5 "/>
<text text-anchor="middle" x="581.094" y="-996.5" font-family="Times,serif" font-size="20.00">&#45;</text>
<polyline fill="none" stroke="black" points="569.764,-988.5 592.424,-988.5 "/>
<text text-anchor="middle" x="581.094" y="-968.5" font-family="Times,serif" font-size="20.00">&#45;</text>
<polyline fill="none" stroke="black" points="569.764,-960.5 592.424,-960.5 "/>
<text text-anchor="middle" x="581.094" y="-940.5" font-family="Times,serif" font-size="20.00">&#45;</text>
</g>
<!-- 21&#45;&gt;0 -->
<g id="edge1" class="edge"><title>21&#45;&gt;0</title>
<path fill="none" stroke="black" d="M119.737,-891.405C122.535,-893.058 125.365,-894.601 128.212,-896 238.864,-950.373 382.382,-972.913 465.795,-981.9"/>
<polygon fill="black" stroke="black" points="465.602,-985.399 475.911,-982.955 466.328,-978.437 465.602,-985.399"/>
</g>
<!-- 20 -->
<g id="node3" class="node"><title>20</title>
<polygon fill="none" stroke="black" points="137,-783.5 137,-895.5 253.424,-895.5 253.424,-783.5 137,-783.5"/>
<text text-anchor="middle" x="195.212" y="-875.5" font-family="Times,serif" font-size="20.00">#20</text>
<polyline fill="none" stroke="black" points="137,-867.5 253.424,-867.5 "/>
<text text-anchor="middle" x="183.882" y="-819.5" font-family="Times,serif" font-size="20.00">keywords</text>
<polyline fill="none" stroke="black" points="230.764,-783.5 230.764,-867.5 "/>
<text text-anchor="middle" x="242.094" y="-847.5" font-family="Times,serif" font-size="20.00">&#45;</text>
<polyline fill="none" stroke="black" points="230.764,-839.5 253.424,-839.5 "/>
<text text-anchor="middle" x="242.094" y="-819.5" font-family="Times,serif" font-size="20.00">&#45;</text>
<polyline fill="none" stroke="black" points="230.764,-811.5 253.424,-811.5 "/>
<text text-anchor="middle" x="242.094" y="-791.5" font-family="Times,serif" font-size="20.00">&#45;</text>
</g>
<!-- 20&#45;&gt;0 -->
<g id="edge2" class="edge"><title>20&#45;&gt;0</title>
<path fill="none" stroke="black" d="M253.536,-890.788C256.41,-892.634 259.309,-894.383 262.212,-896 327.295,-932.247 409.142,-957.366 465.967,-971.992"/>
<polygon fill="black" stroke="black" points="465.37,-975.451 475.923,-974.513 467.089,-968.665 465.37,-975.451"/>
</g>
<!-- 19 -->
<g id="node4" class="node"><title>19</title>
<polygon fill="none" stroke="black" points="220,-38.5 220,-150.5 336.424,-150.5 336.424,-38.5 220,-38.5"/>
<text text-anchor="middle" x="278.212" y="-130.5" font-family="Times,serif" font-size="20.00">#19</text>
<polyline fill="none" stroke="black" points="220,-122.5 336.424,-122.5 "/>
<text text-anchor="middle" x="266.882" y="-74.5" font-family="Times,serif" font-size="20.00">keywords</text>
<polyline fill="none" stroke="black" points="313.764,-38.5 313.764,-122.5 "/>
<text text-anchor="middle" x="325.094" y="-102.5" font-family="Times,serif" font-size="20.00">&#45;</text>
<polyline fill="none" stroke="black" points="313.764,-94.5 336.424,-94.5 "/>
<text text-anchor="middle" x="325.094" y="-74.5" font-family="Times,serif" font-size="20.00">&#45;</text>
<polyline fill="none" stroke="black" points="313.764,-66.5 336.424,-66.5 "/>
<text text-anchor="middle" x="325.094" y="-46.5" font-family="Times,serif" font-size="20.00">&#45;</text>
</g>
<!-- 17 -->
<g id="node5" class="node"><title>17</title>
<polygon fill="none" stroke="black" points="31,-187.5 31,-299.5 147.424,-299.5 147.424,-187.5 31,-187.5"/>
<text text-anchor="middle" x="89.2119" y="-279.5" font-family="Times,serif" font-size="20.00">#17</text>
<polyline fill="none" stroke="black" points="31,-271.5 147.424,-271.5 "/>
<text text-anchor="middle" x="77.8818" y="-223.5" font-family="Times,serif" font-size="20.00">keywords</text>
<polyline fill="none" stroke="black" points="124.764,-187.5 124.764,-271.5 "/>
<text text-anchor="middle" x="136.094" y="-251.5" font-family="Times,serif" font-size="20.00">&#45;</text>
<polyline fill="none" stroke="black" points="124.764,-243.5 147.424,-243.5 "/>
<text text-anchor="middle" x="136.094" y="-223.5" font-family="Times,serif" font-size="20.00">&#45;</text>
<polyline fill="none" stroke="black" points="124.764,-215.5 147.424,-215.5 "/>
<text text-anchor="middle" x="136.094" y="-195.5" font-family="Times,serif" font-size="20.00">&#45;</text>
</g>
<!-- 19&#45;&gt;17 -->
<g id="edge3" class="edge"><title>19&#45;&gt;17</title>
<path fill="none" stroke="black" d="M219.752,-138.451C199.472,-153.586 176.691,-170.854 156.212,-187 155.945,-187.21 155.678,-187.421 155.41,-187.633"/>
<polygon fill="black" stroke="black" points="147.542,-193.902 152.559,-184.151 151.452,-190.786 155.363,-187.67 155.363,-187.67 155.363,-187.67 151.452,-190.786 158.167,-191.19 147.542,-193.902 147.542,-193.902"/>
</g>
<!-- 18 -->
<g id="node6" class="node"><title>18</title>
<polygon fill="none" stroke="black" points="433,-336.5 433,-448.5 549.424,-448.5 549.424,-336.5 433,-336.5"/>
<text text-anchor="middle" x="491.212" y="-428.5" font-family="Times,serif" font-size="20.00">#18</text>
<polyline fill="none" stroke="black" points="433,-420.5 549.424,-420.5 "/>
<text text-anchor="middle" x="479.882" y="-372.5" font-family="Times,serif" font-size="20.00">keywords</text>
<polyline fill="none" stroke="black" points="526.764,-336.5 526.764,-420.5 "/>
<text text-anchor="middle" x="538.094" y="-400.5" font-family="Times,serif" font-size="20.00">&#45;</text>
<polyline fill="none" stroke="black" points="526.764,-392.5 549.424,-392.5 "/>
<text text-anchor="middle" x="538.094" y="-372.5" font-family="Times,serif" font-size="20.00">&#45;</text>
<polyline fill="none" stroke="black" points="526.764,-364.5 549.424,-364.5 "/>
<text text-anchor="middle" x="538.094" y="-344.5" font-family="Times,serif" font-size="20.00">&#45;</text>
</g>
<!-- 19&#45;&gt;18 -->
<g id="edge4" class="edge"><title>19&#45;&gt;18</title>
<path fill="none" stroke="black" d="M336.768,-120.276C366.672,-135.583 401.451,-157.901 424.212,-187 455.817,-227.405 472.793,-283.296 481.741,-326.438"/>
<polygon fill="black" stroke="black" points="483.689,-336.274 477.332,-327.339 482.717,-331.369 481.746,-326.465 481.746,-326.465 481.746,-326.465 482.717,-331.369 486.16,-325.59 483.689,-336.274 483.689,-336.274"/>
</g>
<!-- 5 -->
<g id="node7" class="node"><title>5</title>
<polygon fill="none" stroke="black" points="98,-336.5 98,-448.5 214.424,-448.5 214.424,-336.5 98,-336.5"/>
<text text-anchor="middle" x="156.212" y="-428.5" font-family="Times,serif" font-size="20.00">#5</text>
<polyline fill="none" stroke="black" points="98,-420.5 214.424,-420.5 "/>
<text text-anchor="middle" x="144.882" y="-372.5" font-family="Times,serif" font-size="20.00">keywords</text>
<polyline fill="none" stroke="black" points="191.764,-336.5 191.764,-420.5 "/>
<text text-anchor="middle" x="203.094" y="-400.5" font-family="Times,serif" font-size="20.00">&#45;</text>
<polyline fill="none" stroke="black" points="191.764,-392.5 214.424,-392.5 "/>
<text text-anchor="middle" x="203.094" y="-372.5" font-family="Times,serif" font-size="20.00">&#45;</text>
<polyline fill="none" stroke="black" points="191.764,-364.5 214.424,-364.5 "/>
<text text-anchor="middle" x="203.094" y="-344.5" font-family="Times,serif" font-size="20.00">&#45;</text>
</g>
<!-- 17&#45;&gt;5 -->
<g id="edge6" class="edge"><title>17&#45;&gt;5</title>
<path fill="none" stroke="black" d="M114.351,-299.656C118.374,-308.483 122.57,-317.689 126.684,-326.716"/>
<polygon fill="black" stroke="black" points="130.932,-336.035 122.69,-328.802 128.858,-331.486 126.785,-326.936 126.785,-326.936 126.785,-326.936 128.858,-331.486 130.879,-325.069 130.932,-336.035 130.932,-336.035"/>
</g>
<!-- 18&#45;&gt;0 -->
<g id="edge5" class="edge"><title>18&#45;&gt;0</title>
<path fill="none" stroke="black" d="M489.383,-448.514C487.168,-541.338 486.307,-734.726 510.212,-896 511.489,-904.616 513.267,-913.59 515.284,-922.403"/>
<polygon fill="black" stroke="black" points="511.912,-923.35 517.648,-932.257 518.719,-921.717 511.912,-923.35"/>
</g>
<!-- 4 -->
<g id="node19" class="node"><title>4</title>
<polygon fill="none" stroke="black" points="0,-485.5 0,-597.5 116.424,-597.5 116.424,-485.5 0,-485.5"/>
<text text-anchor="middle" x="58.2119" y="-577.5" font-family="Times,serif" font-size="20.00">#4</text>
<polyline fill="none" stroke="black" points="0,-569.5 116.424,-569.5 "/>
<text text-anchor="middle" x="46.8818" y="-521.5" font-family="Times,serif" font-size="20.00">keywords</text>
<polyline fill="none" stroke="black" points="93.7637,-485.5 93.7637,-569.5 "/>
<text text-anchor="middle" x="105.094" y="-549.5" font-family="Times,serif" font-size="20.00">&#45;</text>
<polyline fill="none" stroke="black" points="93.7637,-541.5 116.424,-541.5 "/>
<text text-anchor="middle" x="105.094" y="-521.5" font-family="Times,serif" font-size="20.00">&#45;</text>
<polyline fill="none" stroke="black" points="93.7637,-513.5 116.424,-513.5 "/>
<text text-anchor="middle" x="105.094" y="-493.5" font-family="Times,serif" font-size="20.00">&#45;</text>
</g>
<!-- 5&#45;&gt;4 -->
<g id="edge19" class="edge"><title>5&#45;&gt;4</title>
<path fill="none" stroke="black" d="M119.442,-448.656C113.37,-457.762 107.032,-467.27 100.832,-476.57"/>
<polygon fill="black" stroke="black" points="95.1884,-485.035 96.9912,-474.219 97.9619,-480.875 100.735,-476.715 100.735,-476.715 100.735,-476.715 97.9619,-480.875 104.48,-479.211 95.1884,-485.035 95.1884,-485.035"/>
</g>
<!-- 16 -->
<g id="node8" class="node"><title>16</title>
<polygon fill="none" stroke="black" points="299,-187.5 299,-299.5 415.424,-299.5 415.424,-187.5 299,-187.5"/>
<text text-anchor="middle" x="357.212" y="-279.5" font-family="Times,serif" font-size="20.00">#16</text>
<polyline fill="none" stroke="black" points="299,-271.5 415.424,-271.5 "/>
<text text-anchor="middle" x="345.882" y="-223.5" font-family="Times,serif" font-size="20.00">keywords</text>
<polyline fill="none" stroke="black" points="392.764,-187.5 392.764,-271.5 "/>
<text text-anchor="middle" x="404.094" y="-251.5" font-family="Times,serif" font-size="20.00">&#45;</text>
<polyline fill="none" stroke="black" points="392.764,-243.5 415.424,-243.5 "/>
<text text-anchor="middle" x="404.094" y="-223.5" font-family="Times,serif" font-size="20.00">&#45;</text>
<polyline fill="none" stroke="black" points="392.764,-215.5 415.424,-215.5 "/>
<text text-anchor="middle" x="404.094" y="-195.5" font-family="Times,serif" font-size="20.00">&#45;</text>
</g>
<!-- 16&#45;&gt;5 -->
<g id="edge8" class="edge"><title>16&#45;&gt;5</title>
<path fill="none" stroke="black" d="M298.634,-293.543C295.804,-295.748 292.987,-297.91 290.212,-300 268.856,-316.082 244.919,-332.815 223.249,-347.507"/>
<polygon fill="black" stroke="black" points="214.75,-353.243 220.521,-343.918 218.894,-350.445 223.039,-347.648 223.039,-347.648 223.039,-347.648 218.894,-350.445 225.556,-351.378 214.75,-353.243 214.75,-353.243"/>
</g>
<!-- 15 -->
<g id="node9" class="node"><title>15</title>
<polygon fill="none" stroke="black" points="299,-336.5 299,-448.5 415.424,-448.5 415.424,-336.5 299,-336.5"/>
<text text-anchor="middle" x="357.212" y="-428.5" font-family="Times,serif" font-size="20.00">#15</text>
<polyline fill="none" stroke="black" points="299,-420.5 415.424,-420.5 "/>
<text text-anchor="middle" x="345.882" y="-372.5" font-family="Times,serif" font-size="20.00">keywords</text>
<polyline fill="none" stroke="black" points="392.764,-336.5 392.764,-420.5 "/>
<text text-anchor="middle" x="404.094" y="-400.5" font-family="Times,serif" font-size="20.00">&#45;</text>
<polyline fill="none" stroke="black" points="392.764,-392.5 415.424,-392.5 "/>
<text text-anchor="middle" x="404.094" y="-372.5" font-family="Times,serif" font-size="20.00">&#45;</text>
<polyline fill="none" stroke="black" points="392.764,-364.5 415.424,-364.5 "/>
<text text-anchor="middle" x="404.094" y="-344.5" font-family="Times,serif" font-size="20.00">&#45;</text>
</g>
<!-- 16&#45;&gt;15 -->
<g id="edge7" class="edge"><title>16&#45;&gt;15</title>
<path fill="none" stroke="black" d="M357.212,-299.656C357.212,-308.205 357.212,-317.108 357.212,-325.86"/>
<polygon fill="black" stroke="black" points="357.212,-336.035 352.712,-326.035 357.212,-331.035 357.212,-326.035 357.212,-326.035 357.212,-326.035 357.212,-331.035 361.712,-326.035 357.212,-336.035 357.212,-336.035"/>
</g>
<!-- 14 -->
<g id="node10" class="node"><title>14</title>
<polygon fill="none" stroke="black" points="300,-485.5 300,-597.5 416.424,-597.5 416.424,-485.5 300,-485.5"/>
<text text-anchor="middle" x="358.212" y="-577.5" font-family="Times,serif" font-size="20.00">#14</text>
<polyline fill="none" stroke="black" points="300,-569.5 416.424,-569.5 "/>
<text text-anchor="middle" x="346.882" y="-521.5" font-family="Times,serif" font-size="20.00">keywords</text>
<polyline fill="none" stroke="black" points="393.764,-485.5 393.764,-569.5 "/>
<text text-anchor="middle" x="405.094" y="-549.5" font-family="Times,serif" font-size="20.00">&#45;</text>
<polyline fill="none" stroke="black" points="393.764,-541.5 416.424,-541.5 "/>
<text text-anchor="middle" x="405.094" y="-521.5" font-family="Times,serif" font-size="20.00">&#45;</text>
<polyline fill="none" stroke="black" points="393.764,-513.5 416.424,-513.5 "/>
<text text-anchor="middle" x="405.094" y="-493.5" font-family="Times,serif" font-size="20.00">&#45;</text>
</g>
<!-- 15&#45;&gt;14 -->
<g id="edge9" class="edge"><title>15&#45;&gt;14</title>
<path fill="none" stroke="black" d="M357.587,-448.656C357.645,-457.205 357.706,-466.108 357.765,-474.86"/>
<polygon fill="black" stroke="black" points="357.835,-485.035 353.267,-475.066 357.801,-480.035 357.766,-475.035 357.766,-475.035 357.766,-475.035 357.801,-480.035 362.266,-475.005 357.835,-485.035 357.835,-485.035"/>
</g>
<!-- 12 -->
<g id="node11" class="node"><title>12</title>
<polygon fill="#eedd82" stroke="black" points="252.783,-634.5 252.783,-746.5 463.641,-746.5 463.641,-634.5 252.783,-634.5"/>
<text text-anchor="middle" x="358.212" y="-726.5" font-family="Times,serif" font-size="20.00">#12</text>
<polyline fill="none" stroke="black" points="252.783,-718.5 463.641,-718.5 "/>
<text text-anchor="middle" x="299.665" y="-670.5" font-family="Times,serif" font-size="20.00">keywords</text>
<polyline fill="none" stroke="black" points="346.547,-634.5 346.547,-718.5 "/>
<text text-anchor="middle" x="405.094" y="-698.5" font-family="Times,serif" font-size="20.00">benchmark</text>
<polyline fill="none" stroke="black" points="346.547,-690.5 463.641,-690.5 "/>
<text text-anchor="middle" x="405.094" y="-670.5" font-family="Times,serif" font-size="20.00">optimization</text>
<polyline fill="none" stroke="black" points="346.547,-662.5 463.641,-662.5 "/>
<text text-anchor="middle" x="405.094" y="-642.5" font-family="Times,serif" font-size="20.00">&#45;</text>
</g>
<!-- 14&#45;&gt;12 -->
<g id="edge10" class="edge"><title>14&#45;&gt;12</title>
<path fill="none" stroke="black" d="M358.212,-597.656C358.212,-606.205 358.212,-615.108 358.212,-623.86"/>
<polygon fill="black" stroke="black" points="358.212,-634.035 353.712,-624.035 358.212,-629.035 358.212,-624.035 358.212,-624.035 358.212,-624.035 358.212,-629.035 362.712,-624.035 358.212,-634.035 358.212,-634.035"/>
</g>
<!-- 12&#45;&gt;0 -->
<g id="edge12" class="edge"><title>12&#45;&gt;0</title>
<path fill="none" stroke="black" d="M409.126,-746.943C418.197,-758.375 427.029,-770.694 434.212,-783 461.301,-829.408 453.338,-847.859 477.212,-896 481.749,-905.149 486.941,-914.554 492.303,-923.691"/>
<polygon fill="black" stroke="black" points="489.345,-925.564 497.48,-932.352 495.354,-921.973 489.345,-925.564"/>
</g>
<!-- 13 -->
<g id="node12" class="node"><title>13</title>
<polygon fill="none" stroke="black" points="519,-783.5 519,-895.5 635.424,-895.5 635.424,-783.5 519,-783.5"/>
<text text-anchor="middle" x="577.212" y="-875.5" font-family="Times,serif" font-size="20.00">#13</text>
<polyline fill="none" stroke="black" points="519,-867.5 635.424,-867.5 "/>
<text text-anchor="middle" x="565.882" y="-819.5" font-family="Times,serif" font-size="20.00">keywords</text>
<polyline fill="none" stroke="black" points="612.764,-783.5 612.764,-867.5 "/>
<text text-anchor="middle" x="624.094" y="-847.5" font-family="Times,serif" font-size="20.00">&#45;</text>
<polyline fill="none" stroke="black" points="612.764,-839.5 635.424,-839.5 "/>
<text text-anchor="middle" x="624.094" y="-819.5" font-family="Times,serif" font-size="20.00">&#45;</text>
<polyline fill="none" stroke="black" points="612.764,-811.5 635.424,-811.5 "/>
<text text-anchor="middle" x="624.094" y="-791.5" font-family="Times,serif" font-size="20.00">&#45;</text>
</g>
<!-- 13&#45;&gt;0 -->
<g id="edge11" class="edge"><title>13&#45;&gt;0</title>
<path fill="none" stroke="black" d="M561.078,-895.656C558.523,-904.391 555.86,-913.495 553.246,-922.431"/>
<polygon fill="black" stroke="black" points="549.885,-921.455 550.436,-932.035 556.603,-923.42 549.885,-921.455"/>
</g>
<!-- 11 -->
<g id="node13" class="node"><title>11</title>
<polygon fill="none" stroke="black" points="653,-783.5 653,-895.5 769.424,-895.5 769.424,-783.5 653,-783.5"/>
<text text-anchor="middle" x="711.212" y="-875.5" font-family="Times,serif" font-size="20.00">#11</text>
<polyline fill="none" stroke="black" points="653,-867.5 769.424,-867.5 "/>
<text text-anchor="middle" x="699.882" y="-819.5" font-family="Times,serif" font-size="20.00">keywords</text>
<polyline fill="none" stroke="black" points="746.764,-783.5 746.764,-867.5 "/>
<text text-anchor="middle" x="758.094" y="-847.5" font-family="Times,serif" font-size="20.00">&#45;</text>
<polyline fill="none" stroke="black" points="746.764,-839.5 769.424,-839.5 "/>
<text text-anchor="middle" x="758.094" y="-819.5" font-family="Times,serif" font-size="20.00">&#45;</text>
<polyline fill="none" stroke="black" points="746.764,-811.5 769.424,-811.5 "/>
<text text-anchor="middle" x="758.094" y="-791.5" font-family="Times,serif" font-size="20.00">&#45;</text>
</g>
<!-- 11&#45;&gt;0 -->
<g id="edge13" class="edge"><title>11&#45;&gt;0</title>
<path fill="none" stroke="black" d="M652.765,-889.041C635.999,-902.965 617.6,-918.245 600.404,-932.527"/>
<polygon fill="black" stroke="black" points="598.054,-929.929 592.598,-939.01 602.527,-935.314 598.054,-929.929"/>
</g>
<!-- 10 -->
<g id="node14" class="node"><title>10</title>
<polygon fill="pink" stroke="black" points="787,-783.5 787,-895.5 903.424,-895.5 903.424,-783.5 787,-783.5"/>
<text text-anchor="middle" x="845.212" y="-875.5" font-family="Times,serif" font-size="20.00">#10</text>
<polyline fill="none" stroke="black" points="787,-867.5 903.424,-867.5 "/>
<text text-anchor="middle" x="833.882" y="-819.5" font-family="Times,serif" font-size="20.00">keywords</text>
<polyline fill="none" stroke="black" points="880.764,-783.5 880.764,-867.5 "/>
<text text-anchor="middle" x="892.094" y="-847.5" font-family="Times,serif" font-size="20.00">&#45;</text>
<polyline fill="none" stroke="black" points="880.764,-839.5 903.424,-839.5 "/>
<text text-anchor="middle" x="892.094" y="-819.5" font-family="Times,serif" font-size="20.00">&#45;</text>
<polyline fill="none" stroke="black" points="880.764,-811.5 903.424,-811.5 "/>
<text text-anchor="middle" x="892.094" y="-791.5" font-family="Times,serif" font-size="20.00">&#45;</text>
</g>
<!-- 10&#45;&gt;0 -->
<g id="edge14" class="edge"><title>10&#45;&gt;0</title>
<path fill="none" stroke="black" d="M786.818,-890.664C783.963,-892.544 781.087,-894.334 778.212,-896 722.342,-928.382 652.922,-953.099 602.429,-968.632"/>
<polygon fill="black" stroke="black" points="601.146,-965.363 592.592,-971.615 603.178,-972.062 601.146,-965.363"/>
</g>
<!-- 9 -->
<g id="node15" class="node"><title>9</title>
<polygon fill="none" stroke="black" points="921,-783.5 921,-895.5 1037.42,-895.5 1037.42,-783.5 921,-783.5"/>
<text text-anchor="middle" x="979.212" y="-875.5" font-family="Times,serif" font-size="20.00">#9</text>
<polyline fill="none" stroke="black" points="921,-867.5 1037.42,-867.5 "/>
<text text-anchor="middle" x="967.882" y="-819.5" font-family="Times,serif" font-size="20.00">keywords</text>
<polyline fill="none" stroke="black" points="1014.76,-783.5 1014.76,-867.5 "/>
<text text-anchor="middle" x="1026.09" y="-847.5" font-family="Times,serif" font-size="20.00">&#45;</text>
<polyline fill="none" stroke="black" points="1014.76,-839.5 1037.42,-839.5 "/>
<text text-anchor="middle" x="1026.09" y="-819.5" font-family="Times,serif" font-size="20.00">&#45;</text>
<polyline fill="none" stroke="black" points="1014.76,-811.5 1037.42,-811.5 "/>
<text text-anchor="middle" x="1026.09" y="-791.5" font-family="Times,serif" font-size="20.00">&#45;</text>
</g>
<!-- 9&#45;&gt;0 -->
<g id="edge15" class="edge"><title>9&#45;&gt;0</title>
<path fill="none" stroke="black" d="M920.659,-891.348C917.869,-893.017 915.048,-894.579 912.212,-896 811.406,-946.528 681.26,-970.071 602.952,-980.334"/>
<polygon fill="black" stroke="black" points="602.203,-976.901 592.725,-981.637 603.088,-983.845 602.203,-976.901"/>
</g>
<!-- 8 -->
<g id="node16" class="node"><title>8</title>
<polygon fill="none" stroke="black" points="1055,-634.5 1055,-746.5 1171.42,-746.5 1171.42,-634.5 1055,-634.5"/>
<text text-anchor="middle" x="1113.21" y="-726.5" font-family="Times,serif" font-size="20.00">#8</text>
<polyline fill="none" stroke="black" points="1055,-718.5 1171.42,-718.5 "/>
<text text-anchor="middle" x="1101.88" y="-670.5" font-family="Times,serif" font-size="20.00">keywords</text>
<polyline fill="none" stroke="black" points="1148.76,-634.5 1148.76,-718.5 "/>
<text text-anchor="middle" x="1160.09" y="-698.5" font-family="Times,serif" font-size="20.00">&#45;</text>
<polyline fill="none" stroke="black" points="1148.76,-690.5 1171.42,-690.5 "/>
<text text-anchor="middle" x="1160.09" y="-670.5" font-family="Times,serif" font-size="20.00">&#45;</text>
<polyline fill="none" stroke="black" points="1148.76,-662.5 1171.42,-662.5 "/>
<text text-anchor="middle" x="1160.09" y="-642.5" font-family="Times,serif" font-size="20.00">&#45;</text>
</g>
<!-- 7 -->
<g id="node17" class="node"><title>7</title>
<polygon fill="none" stroke="black" points="1055,-783.5 1055,-895.5 1171.42,-895.5 1171.42,-783.5 1055,-783.5"/>
<text text-anchor="middle" x="1113.21" y="-875.5" font-family="Times,serif" font-size="20.00">#7</text>
<polyline fill="none" stroke="black" points="1055,-867.5 1171.42,-867.5 "/>
<text text-anchor="middle" x="1101.88" y="-819.5" font-family="Times,serif" font-size="20.00">keywords</text>
<polyline fill="none" stroke="black" points="1148.76,-783.5 1148.76,-867.5 "/>
<text text-anchor="middle" x="1160.09" y="-847.5" font-family="Times,serif" font-size="20.00">&#45;</text>
<polyline fill="none" stroke="black" points="1148.76,-839.5 1171.42,-839.5 "/>
<text text-anchor="middle" x="1160.09" y="-819.5" font-family="Times,serif" font-size="20.00">&#45;</text>
<polyline fill="none" stroke="black" points="1148.76,-811.5 1171.42,-811.5 "/>
<text text-anchor="middle" x="1160.09" y="-791.5" font-family="Times,serif" font-size="20.00">&#45;</text>
</g>
<!-- 8&#45;&gt;7 -->
<g id="edge16" class="edge"><title>8&#45;&gt;7</title>
<path fill="none" stroke="black" d="M1113.21,-746.656C1113.21,-755.205 1113.21,-764.108 1113.21,-772.86"/>
<polygon fill="black" stroke="black" points="1113.21,-783.035 1108.71,-773.035 1113.21,-778.035 1113.21,-773.035 1113.21,-773.035 1113.21,-773.035 1113.21,-778.035 1117.71,-773.035 1113.21,-783.035 1113.21,-783.035"/>
</g>
<!-- 7&#45;&gt;0 -->
<g id="edge17" class="edge"><title>7&#45;&gt;0</title>
<path fill="none" stroke="black" d="M1054.76,-891.567C1051.95,-893.176 1049.09,-894.665 1046.21,-896 898.317,-964.602 704.362,-981.951 602.88,-986.218"/>
<polygon fill="black" stroke="black" points="602.613,-982.726 592.757,-986.613 602.886,-989.72 602.613,-982.726"/>
</g>
<!-- 6 -->
<g id="node18" class="node"><title>6</title>
<polygon fill="none" stroke="black" points="165,-187.5 165,-299.5 281.424,-299.5 281.424,-187.5 165,-187.5"/>
<text text-anchor="middle" x="223.212" y="-279.5" font-family="Times,serif" font-size="20.00">#6</text>
<polyline fill="none" stroke="black" points="165,-271.5 281.424,-271.5 "/>
<text text-anchor="middle" x="211.882" y="-223.5" font-family="Times,serif" font-size="20.00">keywords</text>
<polyline fill="none" stroke="black" points="258.764,-187.5 258.764,-271.5 "/>
<text text-anchor="middle" x="270.094" y="-251.5" font-family="Times,serif" font-size="20.00">&#45;</text>
<polyline fill="none" stroke="black" points="258.764,-243.5 281.424,-243.5 "/>
<text text-anchor="middle" x="270.094" y="-223.5" font-family="Times,serif" font-size="20.00">&#45;</text>
<polyline fill="none" stroke="black" points="258.764,-215.5 281.424,-215.5 "/>
<text text-anchor="middle" x="270.094" y="-195.5" font-family="Times,serif" font-size="20.00">&#45;</text>
</g>
<!-- 6&#45;&gt;5 -->
<g id="edge18" class="edge"><title>6&#45;&gt;5</title>
<path fill="none" stroke="black" d="M198.073,-299.656C194.049,-308.483 189.854,-317.689 185.739,-326.716"/>
<polygon fill="black" stroke="black" points="181.492,-336.035 181.544,-325.069 183.565,-331.486 185.639,-326.936 185.639,-326.936 185.639,-326.936 183.565,-331.486 189.734,-328.802 181.492,-336.035 181.492,-336.035"/>
</g>
<!-- 2 -->
<g id="node20" class="node"><title>2</title>
<polygon fill="none" stroke="black" points="118,-634.5 118,-746.5 234.424,-746.5 234.424,-634.5 118,-634.5"/>
<text text-anchor="middle" x="176.212" y="-726.5" font-family="Times,serif" font-size="20.00">#2</text>
<polyline fill="none" stroke="black" points="118,-718.5 234.424,-718.5 "/>
<text text-anchor="middle" x="164.882" y="-670.5" font-family="Times,serif" font-size="20.00">keywords</text>
<polyline fill="none" stroke="black" points="211.764,-634.5 211.764,-718.5 "/>
<text text-anchor="middle" x="223.094" y="-698.5" font-family="Times,serif" font-size="20.00">&#45;</text>
<polyline fill="none" stroke="black" points="211.764,-690.5 234.424,-690.5 "/>
<text text-anchor="middle" x="223.094" y="-670.5" font-family="Times,serif" font-size="20.00">&#45;</text>
<polyline fill="none" stroke="black" points="211.764,-662.5 234.424,-662.5 "/>
<text text-anchor="middle" x="223.094" y="-642.5" font-family="Times,serif" font-size="20.00">&#45;</text>
</g>
<!-- 4&#45;&gt;2 -->
<g id="edge20" class="edge"><title>4&#45;&gt;2</title>
<path fill="none" stroke="black" d="M102.486,-597.656C109.946,-606.948 117.741,-616.659 125.351,-626.139"/>
<polygon fill="black" stroke="black" points="131.689,-634.035 121.92,-629.054 128.559,-630.136 125.429,-626.237 125.429,-626.237 125.429,-626.237 128.559,-630.136 128.939,-623.42 131.689,-634.035 131.689,-634.035"/>
</g>
<!-- 1 -->
<g id="node22" class="node"><title>1</title>
<polygon fill="#eedd82" stroke="black" points="271.118,-783.5 271.118,-895.5 425.306,-895.5 425.306,-783.5 271.118,-783.5"/>
<text text-anchor="middle" x="348.212" y="-875.5" font-family="Times,serif" font-size="20.00">#1</text>
<polyline fill="none" stroke="black" points="271.118,-867.5 425.306,-867.5 "/>
<text text-anchor="middle" x="318" y="-819.5" font-family="Times,serif" font-size="20.00">keywords</text>
<polyline fill="none" stroke="black" points="364.882,-783.5 364.882,-867.5 "/>
<text text-anchor="middle" x="395.094" y="-847.5" font-family="Times,serif" font-size="20.00">spec</text>
<polyline fill="none" stroke="black" points="364.882,-839.5 425.306,-839.5 "/>
<text text-anchor="middle" x="395.094" y="-819.5" font-family="Times,serif" font-size="20.00">ticket</text>
<polyline fill="none" stroke="black" points="364.882,-811.5 425.306,-811.5 "/>
<text text-anchor="middle" x="395.094" y="-791.5" font-family="Times,serif" font-size="20.00">&#45;</text>
</g>
<!-- 2&#45;&gt;1 -->
<g id="edge22" class="edge"><title>2&#45;&gt;1</title>
<path fill="none" stroke="black" d="M234.443,-741.267C247.847,-752.723 262.258,-765.04 276.169,-776.929"/>
<polygon fill="black" stroke="black" points="283.837,-783.482 273.311,-780.406 280.036,-780.233 276.235,-776.985 276.235,-776.985 276.235,-776.985 280.036,-780.233 279.158,-773.564 283.837,-783.482 283.837,-783.482"/>
</g>
<!-- 3 -->
<g id="node21" class="node"><title>3</title>
<polygon fill="#eedd82" stroke="black" points="134.453,-485.5 134.453,-597.5 281.971,-597.5 281.971,-485.5 134.453,-485.5"/>
<text text-anchor="middle" x="208.212" y="-577.5" font-family="Times,serif" font-size="20.00">#3</text>
<polyline fill="none" stroke="black" points="134.453,-569.5 281.971,-569.5 "/>
<text text-anchor="middle" x="181.335" y="-521.5" font-family="Times,serif" font-size="20.00">keywords</text>
<polyline fill="none" stroke="black" points="228.217,-485.5 228.217,-569.5 "/>
<text text-anchor="middle" x="255.094" y="-549.5" font-family="Times,serif" font-size="20.00">head</text>
<polyline fill="none" stroke="black" points="228.217,-541.5 281.971,-541.5 "/>
<text text-anchor="middle" x="255.094" y="-521.5" font-family="Times,serif" font-size="20.00">&#45;</text>
<polyline fill="none" stroke="black" points="228.217,-513.5 281.971,-513.5 "/>
<text text-anchor="middle" x="255.094" y="-493.5" font-family="Times,serif" font-size="20.00">&#45;</text>
</g>
<!-- 3&#45;&gt;2 -->
<g id="edge21" class="edge"><title>3&#45;&gt;2</title>
<path fill="none" stroke="black" d="M196.205,-597.656C194.324,-606.298 192.364,-615.301 190.439,-624.145"/>
<polygon fill="black" stroke="black" points="188.286,-634.035 186.016,-623.307 189.349,-629.15 190.413,-624.264 190.413,-624.264 190.413,-624.264 189.349,-629.15 194.81,-625.221 188.286,-634.035 188.286,-634.035"/>
</g>
<!-- 1&#45;&gt;0 -->
<g id="edge23" class="edge"><title>1&#45;&gt;0</title>
<path fill="none" stroke="black" d="M418.001,-895.656C434.389,-908.608 451.805,-922.372 468.03,-935.195"/>
<polygon fill="black" stroke="black" points="465.874,-937.952 475.89,-941.407 470.214,-932.46 465.874,-937.952"/>
</g>
</g>
</svg>
